<svg width="20" height="21" viewBox="0 0 20 21" fill="none" xmlns="http://www.w3.org/2000/svg">
<path d="M2.5 7.16797L9.075 11.5513C9.34888 11.734 9.67075 11.8316 10 11.8316C10.3292 11.8316 10.6511 11.734 10.925 11.5513L17.5 7.16797M4.16667 16.3346H15.8333C16.2754 16.3346 16.6993 16.159 17.0118 15.8465C17.3244 15.5339 17.5 15.11 17.5 14.668V6.33464C17.5 5.89261 17.3244 5.46868 17.0118 5.15612C16.6993 4.84356 16.2754 4.66797 15.8333 4.66797H4.16667C3.72464 4.66797 3.30072 4.84356 2.98816 5.15612C2.67559 5.46868 2.5 5.89261 2.5 6.33464V14.668C2.5 15.11 2.67559 15.5339 2.98816 15.8465C3.30072 16.159 3.72464 16.3346 4.16667 16.3346Z" stroke="#3F3F46" stroke-width="2" stroke-linecap="round" stroke-linejoin="round"/>
</svg>
