<svg width="20" height="21" viewBox="0 0 20 21" fill="none" xmlns="http://www.w3.org/2000/svg">
<path d="M14.7129 14.3806L11.177 17.9164C11.0224 18.0712 10.8388 18.194 10.6367 18.2778C10.4346 18.3616 10.2179 18.4047 9.99912 18.4047C9.78033 18.4047 9.56368 18.3616 9.36157 18.2778C9.15945 18.194 8.97583 18.0712 8.8212 17.9164L5.28453 14.3806C4.35222 13.4482 3.71731 12.2603 3.46011 10.9671C3.2029 9.67394 3.33494 8.33352 3.83954 7.11536C4.34413 5.89721 5.19861 4.85604 6.29494 4.12351C7.39126 3.39098 8.68017 3 9.9987 3C11.3172 3 12.6061 3.39098 13.7025 4.12351C14.7988 4.85604 15.6533 5.89721 16.1579 7.11536C16.6625 8.33352 16.7945 9.67394 16.5373 10.9671C16.2801 12.2603 15.6452 13.4482 14.7129 14.3806V14.3806Z" stroke="#3F3F46" stroke-width="2" stroke-linecap="round" stroke-linejoin="round"/>
<path d="M11.7678 11.4357C12.2366 10.9669 12.5 10.331 12.5 9.66797C12.5 9.00493 12.2366 8.36904 11.7678 7.9002C11.2989 7.43136 10.663 7.16797 10 7.16797C9.33696 7.16797 8.70107 7.43136 8.23223 7.9002C7.76339 8.36904 7.5 9.00493 7.5 9.66797C7.5 10.331 7.76339 10.9669 8.23223 11.4357C8.70107 11.9046 9.33696 12.168 10 12.168C10.663 12.168 11.2989 11.9046 11.7678 11.4357Z" stroke="#3F3F46" stroke-width="2" stroke-linecap="round" stroke-linejoin="round"/>
</svg>
