<svg width="43" height="40" viewBox="0 0 43 40" fill="none" xmlns="http://www.w3.org/2000/svg">
<path d="M22.0113 19.0547C21.4609 19.0547 21.0147 18.6085 21.0147 18.0581L21.0147 9.06551C21.0147 8.51513 21.4609 8.06895 22.0113 8.06895C22.5616 8.06895 23.0078 8.51513 23.0078 9.06551L23.0078 18.0581C23.0078 18.6085 22.5616 19.0547 22.0113 19.0547Z" fill="#1C2864"/>
<path d="M22.0073 23.0586C21.4611 23.0586 21.0147 22.6158 21.0147 22.0696C21.0147 21.5234 21.4611 21.0806 22.0073 21.0806C22.5536 21.0806 23 21.5234 23 22.0696C23 22.6158 22.5536 23.0586 22.0073 23.0586Z" fill="#374FC7"/>
<path d="M9.06457 38.9633C9.28802 39.305 9.75029 39.3935 10.0841 39.1583L20.7329 31.6557C21.4072 31.1806 22.2119 30.9256 23.0367 30.9256H38.9141C41.1232 30.9256 42.9141 29.1348 42.9141 26.9256V4C42.9141 1.79086 41.1232 0 38.9141 0H4.99679C2.78765 0 0.996784 1.79086 0.996784 4V26.9256C0.996784 29.1348 2.78765 30.9256 4.99678 30.9256H8.3556C8.74144 30.9256 9.05422 30.6129 9.05422 30.227C9.05422 29.8412 8.74144 29.5284 8.3556 29.5284H5.27501C3.70961 29.5284 2.4406 28.2594 2.4406 26.694V4.44382C2.4406 2.78696 3.78375 1.44382 5.4406 1.44382H38.4702C40.1271 1.44382 41.4702 2.78696 41.4702 4.44382V26.5284C41.4702 28.1853 40.1271 29.5284 38.4702 29.5284H22.6087C21.7893 29.5284 20.9898 29.78 20.3181 30.2492L9.25529 37.9769C8.93565 38.2001 8.8512 38.637 9.06457 38.9633Z" fill="#1C2864"/>
</svg>
