<svg width="37" height="36" viewBox="0 0 37 36" fill="none" xmlns="http://www.w3.org/2000/svg">
<path d="M0.5 18C0.5 8.33502 8.33502 0.5 18 0.5H19C28.665 0.5 36.5 8.33502 36.5 18C36.5 27.665 28.665 35.5 19 35.5H18C8.33502 35.5 0.5 27.665 0.5 18Z" stroke="#616161"/>
<path d="M19.8412 26V17.7896H22.4941L22.8929 14.5894H19.8412V12.5459C19.8412 11.62 20.0901 10.9889 21.367 10.9889H23V8.12512C22.7189 8.08619 21.7499 8 20.6228 8C18.2698 8 16.6609 9.49027 16.6609 12.2289V14.5894H14V17.7896H16.6609V26H19.8412Z" fill="#E8EAF6"/>
</svg>
