<svg width="20" height="20" viewBox="0 0 20 20" fill="none" xmlns="http://www.w3.org/2000/svg">
<path d="M14.7129 13.8806L11.177 17.4164C11.0224 17.5712 10.8388 17.694 10.6367 17.7778C10.4346 17.8616 10.2179 17.9047 9.99912 17.9047C9.78033 17.9047 9.56368 17.8616 9.36157 17.7778C9.15945 17.694 8.97583 17.5712 8.8212 17.4164L5.28453 13.8806C4.35222 12.9482 3.71731 11.7603 3.46011 10.4671C3.2029 9.17394 3.33494 7.83352 3.83954 6.61536C4.34413 5.39721 5.19861 4.35604 6.29494 3.62351C7.39126 2.89098 8.68017 2.5 9.9987 2.5C11.3172 2.5 12.6061 2.89098 13.7025 3.62351C14.7988 4.35604 15.6533 5.39721 16.1579 6.61536C16.6625 7.83352 16.7945 9.17394 16.5373 10.4671C16.2801 11.7603 15.6452 12.9482 14.7129 13.8806V13.8806Z" stroke="#3F3F46" stroke-width="2" stroke-linecap="round" stroke-linejoin="round"/>
<path d="M11.7678 10.9357C12.2366 10.4669 12.5 9.83101 12.5 9.16797C12.5 8.50493 12.2366 7.86904 11.7678 7.4002C11.2989 6.93136 10.663 6.66797 10 6.66797C9.33696 6.66797 8.70107 6.93136 8.23223 7.4002C7.76339 7.86904 7.5 8.50493 7.5 9.16797C7.5 9.83101 7.76339 10.4669 8.23223 10.9357C8.70107 11.4046 9.33696 11.668 10 11.668C10.663 11.668 11.2989 11.4046 11.7678 10.9357Z" stroke="#3F3F46" stroke-width="2" stroke-linecap="round" stroke-linejoin="round"/>
</svg>
