<svg width="38" height="36" viewBox="0 0 38 36" fill="none" xmlns="http://www.w3.org/2000/svg">
<path d="M0.5 17.802C0.5 8.24637 8.24637 0.5 17.802 0.5H19.4897C29.0453 0.5 36.7917 8.24637 36.7917 17.802C36.7917 27.3576 29.0453 35.104 19.4897 35.104H17.802C8.24637 35.104 0.5 27.3576 0.5 17.802Z" stroke="#616161"/>
<path d="M18.5 11.3504C20.5042 11.3504 20.7411 11.359 21.532 11.3932C22.2628 11.4275 22.6597 11.5502 22.9252 11.653C23.2735 11.7872 23.5247 11.9499 23.7874 12.2126C24.0501 12.4753 24.2128 12.7265 24.347 13.0748C24.4498 13.3403 24.5725 13.7372 24.6068 14.468C24.641 15.2589 24.6496 15.4958 24.6496 17.5C24.6496 19.5013 24.641 19.7383 24.6068 20.532C24.5725 21.2628 24.4498 21.6597 24.347 21.9223C24.2128 22.2735 24.0501 22.5247 23.7874 22.7845C23.5247 23.0472 23.2735 23.2099 22.9252 23.347C22.6597 23.4498 22.2628 23.5725 21.532 23.6039C20.7411 23.641 20.5042 23.6496 18.5 23.6496C16.4987 23.6496 16.2589 23.641 15.468 23.6039C14.7372 23.5725 14.3403 23.4498 14.0777 23.347C13.7265 23.2099 13.4753 23.0472 13.2155 22.7845C12.9528 22.5247 12.7901 22.2735 12.653 21.9223C12.5502 21.6597 12.4275 21.2628 12.3961 20.532C12.359 19.7383 12.3504 19.5013 12.3504 17.5C12.3504 15.4958 12.359 15.2589 12.3961 14.468C12.4275 13.7372 12.5502 13.3403 12.653 13.0748C12.7901 12.7265 12.9528 12.4753 13.2126 12.2126C13.4753 11.9499 13.7265 11.7872 14.0777 11.653C14.3403 11.5502 14.7372 11.4275 15.468 11.3932C16.2589 11.359 16.4987 11.3504 18.5 11.3504ZM18.5 10C16.4644 10 16.2075 10.0086 15.4081 10.0428C14.6087 10.0799 14.0634 10.2084 13.5866 10.394C13.0927 10.5853 12.6759 10.8394 12.259 11.259C11.8422 11.6759 11.5853 12.0927 11.394 12.5866C11.2084 13.0634 11.0799 13.6087 11.0457 14.4081C11.0086 15.2075 11 15.4616 11 17.5C11 19.5356 11.0086 19.7925 11.0457 20.5919C11.0799 21.3913 11.2084 21.9366 11.394 22.4134C11.5853 22.9073 11.8422 23.3241 12.259 23.741C12.6759 24.1578 13.0927 24.4147 13.5866 24.606C14.0634 24.7916 14.6087 24.9201 15.4081 24.9543C16.2075 24.9914 16.4644 25 18.5 25C20.5384 25 20.7925 24.9914 21.5919 24.9543C22.3913 24.9201 22.9366 24.7916 23.4134 24.606C23.9073 24.4147 24.3241 24.1578 24.741 23.741C25.1578 23.3241 25.4147 22.9073 25.606 22.4134C25.7916 21.9366 25.9201 21.3913 25.9572 20.5919C25.9914 19.7925 26 19.5356 26 17.5C26 15.4616 25.9914 15.2075 25.9572 14.4081C25.9201 13.6087 25.7916 13.0634 25.606 12.5866C25.4147 12.0927 25.1578 11.6759 24.741 11.259C24.3241 10.8394 23.9073 10.5853 23.4134 10.394C22.9366 10.2084 22.3913 10.0799 21.5919 10.0428C20.7925 10.0086 20.5384 10 18.5 10Z" fill="#E8EAF6"/>
<path d="M18.4998 13.6484C16.3728 13.6484 14.6484 15.3728 14.6484 17.4998C14.6484 19.6267 16.3728 21.3511 18.4998 21.3511C20.6267 21.3511 22.3511 19.6267 22.3511 17.4998C22.3511 15.3728 20.6267 13.6484 18.4998 13.6484ZM18.4998 20.0007C17.118 20.0007 15.9988 18.8816 15.9988 17.4998C15.9988 16.118 17.118 14.9988 18.4998 14.9988C19.8816 14.9988 21.0007 16.118 21.0007 17.4998C21.0007 18.8816 19.8816 20.0007 18.4998 20.0007Z" fill="#E8EAF6"/>
<path d="M23.403 13.4931C23.403 13.9927 23.0005 14.3952 22.5037 14.3952C22.0041 14.3952 21.6016 13.9927 21.6016 13.4931C21.6016 12.9963 22.0041 12.5938 22.5037 12.5938C23.0005 12.5938 23.403 12.9963 23.403 13.4931Z" fill="#E8EAF6"/>
</svg>
