<svg width="23" height="18" viewBox="0 0 23 18" fill="none" xmlns="http://www.w3.org/2000/svg">
<path d="M1 10H4" stroke="#6B7280" stroke-width="2" stroke-linecap="round"/>
<path d="M22 17L16.6667 11.6667M18.4444 7.22222C18.4444 8.03934 18.2835 8.84845 17.9708 9.60336C17.6581 10.3583 17.1998 11.0442 16.622 11.622C16.0442 12.1998 15.3583 12.6581 14.6034 12.9708C13.8484 13.2835 13.0393 13.4444 12.2222 13.4444C11.4051 13.4444 10.596 13.2835 9.84108 12.9708C9.08617 12.6581 8.40023 12.1998 7.82245 11.622C7.24466 11.0442 6.78633 10.3583 6.47364 9.60336C6.16094 8.84845 6 8.03934 6 7.22222C6 5.57199 6.65555 3.98934 7.82245 2.82245C8.98934 1.65555 10.572 1 12.2222 1C13.8725 1 15.4551 1.65555 16.622 2.82245C17.7889 3.98934 18.4444 5.57199 18.4444 7.22222Z" stroke="#6B7280" stroke-width="2" stroke-linecap="round" stroke-linejoin="round"/>
<line x1="1" y1="17" x2="18" y2="17" stroke="#6B7280" stroke-width="2" stroke-linecap="round"/>
<line x1="1" y1="2" x2="5" y2="2" stroke="#6B7280" stroke-width="2" stroke-linecap="round"/>
</svg>
