<svg width="37" height="36" viewBox="0 0 37 36" fill="none" xmlns="http://www.w3.org/2000/svg">
<path d="M0.5 18C0.5 8.33502 8.33502 0.5 18 0.5H19C28.665 0.5 36.5 8.33502 36.5 18C36.5 27.665 28.665 35.5 19 35.5H18C8.33502 35.5 0.5 27.665 0.5 18Z" stroke="#616161"/>
<path d="M17.9187 17.772C20.338 17.772 22.3062 15.8067 22.3062 13.3875C22.3062 10.9682 20.338 9 17.9187 9C15.4995 9 13.5312 10.9682 13.5312 13.3875C13.5312 15.8067 15.4995 17.772 17.9187 17.772ZM17.9187 11.5716C18.9204 11.5716 19.7346 12.3858 19.7346 13.3875C19.7346 14.3892 18.9204 15.2034 17.9187 15.2034C16.917 15.2034 16.1028 14.3892 16.1028 13.3875C16.1028 12.3858 16.917 11.5716 17.9187 11.5716Z" fill="#E8EAF6"/>
<path d="M19.6993 21.3516C20.5926 21.1495 21.4537 20.7951 22.2474 20.2972C22.8479 19.9193 23.0295 19.1256 22.6516 18.5252C22.2709 17.9248 21.4801 17.7432 20.8767 18.121C19.0813 19.2516 16.7675 19.2516 14.9692 18.121C14.3687 17.7432 13.575 17.9248 13.1972 18.5252C12.8194 19.1256 13.0009 19.9193 13.6014 20.2972C14.3951 20.7951 15.2562 21.1495 16.1495 21.3516L13.6951 23.806C13.1942 24.3068 13.1942 25.1211 13.6951 25.6248C13.947 25.8738 14.275 25.9997 14.606 25.9997C14.934 25.9997 15.262 25.8738 15.5139 25.6248L17.9244 23.2143L20.3349 25.6248C20.8357 26.1257 21.65 26.1257 22.1537 25.6248C22.6546 25.1211 22.6546 24.3068 22.1537 23.806L19.6993 21.3516Z" fill="#E8EAF6"/>
</svg>
