<svg width="43" height="40" viewBox="0 0 43 40" fill="none" xmlns="http://www.w3.org/2000/svg">
<path d="M15.055 9.85154C15.0548 9.85132 15.0548 9.851 15.0549 9.85072C16.0668 7.56802 18.3379 6.08594 20.8354 6.08594C24.3205 6.08594 27.1556 8.92058 27.1556 12.4062C27.1556 14.9864 25.5863 17.3063 23.1923 18.269C22.3199 18.6186 21.7899 19.4111 21.7899 20.3494L21.7897 20.5002C21.7891 21.026 21.3627 21.4519 20.8369 21.4519C20.3107 21.4519 19.8841 21.0253 19.8841 20.499V20.3494C19.8759 18.6289 20.8904 17.1417 22.4841 16.5016C24.1541 15.8295 25.2457 14.2046 25.2457 12.4062C25.2457 9.96531 23.2767 7.9963 20.8359 7.9963C19.4219 7.9963 18.1246 8.66175 17.3034 9.76076C16.9733 10.2024 16.3924 10.4404 15.8878 10.2183L15.0553 9.85169C15.0552 9.85165 15.0551 9.8516 15.055 9.85154ZM20.8848 22.7947C21.383 22.7947 21.7868 23.1989 21.7863 23.6972C21.7858 24.1947 21.3823 24.5978 20.8848 24.5978H20.7851C20.2872 24.5978 19.8836 24.1941 19.8836 23.6962C19.8836 23.1984 20.2872 22.7947 20.7851 22.7947H20.8848Z" fill="#1C2864"/>
<path d="M33.9979 39.0805C33.7745 39.4222 33.3122 39.5106 32.9784 39.2755L22.3296 31.7729C21.6553 31.2978 20.8506 31.0428 20.0258 31.0428H4.14843C1.93929 31.0428 0.148438 29.252 0.148438 27.0428V4.11718C0.148438 1.90805 1.9393 0.117188 4.14844 0.117188H38.0657C40.2748 0.117188 42.0657 1.90805 42.0657 4.11719V27.0428C42.0657 29.252 40.2749 31.0428 38.0657 31.0428H34.7069C34.3211 31.0428 34.0083 30.73 34.0083 30.3442C34.0083 29.9584 34.3211 29.6456 34.7069 29.6456H37.7875C39.3529 29.6456 40.6219 28.3766 40.6219 26.8112V4.561C40.6219 2.90415 39.2788 1.56101 37.6219 1.56101H4.59225C2.9354 1.56101 1.59225 2.90415 1.59225 4.56101V26.6456C1.59225 28.3024 2.9354 29.6456 4.59225 29.6456H20.4538C21.2732 29.6456 22.0727 29.8972 22.7444 30.3664L33.8072 38.0941C34.1268 38.3173 34.2113 38.7541 33.9979 39.0805Z" fill="#1C2864"/>
</svg>
