<svg width="175" height="184" viewBox="0 0 175 184" fill="none" xmlns="http://www.w3.org/2000/svg">
<path d="M112.684 101.063C110.758 99.3385 107.799 99.5068 106.084 101.428C96.3342 112.323 82.2751 118.567 67.5009 118.567C52.7313 118.567 38.6675 112.323 28.9177 101.428C27.1931 99.5068 24.2438 99.3385 22.3182 101.063C20.3925 102.783 20.2336 105.737 21.9536 107.663C33.4748 120.535 50.0765 127.915 67.5009 127.915C84.9299 127.915 101.532 120.53 113.048 107.663C114.768 105.737 114.605 102.783 112.684 101.063Z" fill="#374151" fill-opacity="0.05"/>
<path d="M67.5 -31C8.22543 -31 -40 17.2254 -40 76.5C-40 135.775 8.22543 184 67.5 184C126.775 184 175 135.775 175 76.5C175 17.2254 126.775 -31 67.5 -31ZM67.5 174.652C13.3761 174.652 -30.6522 130.624 -30.6522 76.5C-30.6522 22.3761 13.3761 -21.6522 67.5 -21.6522C121.624 -21.6522 165.652 22.3761 165.652 76.5C165.652 130.624 121.624 174.652 67.5 174.652Z" fill="#374151" fill-opacity="0.05"/>
<path d="M104.889 43.7812C92.0031 43.7812 81.5195 54.2648 81.5195 67.1508C81.5195 69.7308 83.6134 71.8247 86.1934 71.8247C88.7734 71.8247 90.8674 69.7308 90.8674 67.1508C90.8674 59.4202 97.1584 53.1291 104.889 53.1291C112.62 53.1291 118.911 59.4202 118.911 67.1508C118.911 69.7308 121.005 71.8247 123.585 71.8247C126.165 71.8247 128.259 69.7308 128.259 67.1508C128.259 54.2648 117.775 43.7812 104.889 43.7812Z" fill="#374151" fill-opacity="0.05"/>
<path d="M44.1315 67.1508C44.1315 69.7308 46.2255 71.8247 48.8055 71.8247C51.3855 71.8247 53.4794 69.7308 53.4794 67.1508C53.4794 54.2648 42.9958 43.7812 30.1098 43.7812C17.2238 43.7812 6.74023 54.2648 6.74023 67.1508C6.74023 69.7308 8.83415 71.8247 11.4141 71.8247C13.9941 71.8247 16.0881 69.7308 16.0881 67.1508C16.0881 59.4202 22.3791 53.1291 30.1098 53.1291C37.8405 53.1291 44.1315 59.4202 44.1315 67.1508Z" fill="#374151" fill-opacity="0.05"/>
</svg>
