<svg width="36" height="36" viewBox="0 0 36 36" fill="none" xmlns="http://www.w3.org/2000/svg">
<circle cx="18" cy="18" r="18" fill="#2CA0D2"/>
<path fill-rule="evenodd" clip-rule="evenodd" d="M22.9451 11.1373C22.3388 11.3951 15.5047 14.3853 9.9382 16.8085C9.49737 17.0146 9.2234 17.4233 9.22567 17.8305C9.22793 18.2377 9.5611 18.5412 9.9481 18.5899C10.2799 18.639 13.5971 19.0787 13.5971 19.0787L14.5646 24.1633L15.0494 21.921L14.3125 18.5657L21.027 13.9474L15.5336 19.5769L17.4785 21.6021C17.5895 21.7033 19.9792 24.235 20.1458 24.3868C20.4235 24.6397 20.8683 25.1463 21.0892 25.145C21.476 25.1429 21.8598 24.6318 22.0213 23.8674C22.1831 23.1539 23.2606 18.2106 24.6053 11.637C24.767 10.9235 24.0471 10.6221 22.9451 11.1373Z" fill="white"/>
</svg>
