<svg width="36" height="36" viewBox="0 0 36 36" fill="none" xmlns="http://www.w3.org/2000/svg">
<circle cx="18" cy="18" r="18" fill="#794E9B"/>
<g clip-path="url(#clip0)">
<path d="M27.318 19.4992C27.8978 14.732 27.0395 11.7223 25.4914 10.361C22.9928 8.03627 14.5553 7.6914 11.5661 10.4646C10.2237 11.8211 9.75081 13.812 9.69899 16.2767C9.64718 18.7422 9.58564 23.3608 13.991 24.6137H13.9951L13.991 26.5271C13.991 26.5271 13.9611 27.3023 14.4679 27.4581C15.0476 27.6416 15.31 27.2817 17.1131 25.1777C20.1282 25.4332 22.4439 24.8479 22.707 24.7624C23.3159 24.5631 26.761 24.1178 27.318 19.4992ZM17.4102 23.8314C17.4102 23.8314 15.5018 26.1562 14.9084 26.7597C14.714 26.9558 14.5011 26.9376 14.5043 26.5485C14.5043 26.293 14.5189 23.3719 14.5189 23.3719C10.7839 22.3262 11.0042 18.3934 11.0447 16.3361C11.0851 14.2779 11.4705 12.5923 12.6073 11.4573C15.2298 9.05505 22.6277 9.59213 24.5126 11.3228C26.8169 13.3185 25.9967 18.9566 26.0015 19.1488C25.5279 23.0041 22.7362 23.2485 22.2228 23.4154C22.0034 23.4866 19.9671 23.9983 17.4102 23.8314Z" fill="white"/>
<path d="M18.466 11.9089C18.1543 11.9089 18.1543 12.3835 18.466 12.3875C20.8845 12.4056 22.8763 14.0525 22.8981 17.0733C22.8981 17.392 23.3758 17.3881 23.3718 17.0693C23.3459 13.8144 21.1703 11.9271 18.466 11.9089Z" fill="white"/>
<path d="M21.6473 16.5725C21.64 16.8873 22.1169 16.9024 22.1209 16.5836C22.1606 14.7889 21.0279 13.3105 18.8993 13.1547C18.5876 13.1325 18.5552 13.6111 18.8661 13.6332C20.7121 13.7701 21.6845 15.0008 21.6473 16.5725Z" fill="white"/>
<path d="M21.137 18.6141C20.737 18.3879 20.3297 18.5287 20.1613 18.751L19.8091 19.1963C19.6302 19.4225 19.2958 19.3924 19.2958 19.3924C16.8555 18.762 16.2029 16.2673 16.2029 16.2673C16.2029 16.2673 16.1729 15.9295 16.3964 15.7484L16.8368 15.3924C17.0571 15.2216 17.1963 14.8103 16.9721 14.4061C16.3729 13.3485 15.9705 12.9839 15.7657 12.7039C15.5503 12.4405 15.2264 12.3811 14.8896 12.5591H14.8823C14.182 12.9594 13.4152 13.7084 13.6605 14.4796C14.0791 15.2928 14.8483 17.8848 17.3 19.8433C18.4521 20.7695 20.2755 21.7187 21.0495 21.9378L21.0568 21.9489C21.8195 22.1973 22.5612 21.4189 22.9571 20.7142V20.7086C23.1328 20.3677 23.0745 20.045 22.8178 19.8338C22.3628 19.4004 21.6762 18.9218 21.137 18.6141Z" fill="white"/>
<path d="M19.2327 14.9202C20.0108 14.9645 20.3881 15.3616 20.4285 16.1771C20.4431 16.4959 20.9168 16.4737 20.9022 16.1549C20.8504 15.0903 20.282 14.497 19.2586 14.4417C18.9469 14.4235 18.9177 14.902 19.2327 14.9202Z" fill="white"/>
</g>
<defs>
<clipPath id="clip0">
<rect width="19" height="19" fill="white" transform="translate(8.5 8.5)"/>
</clipPath>
</defs>
</svg>
