<svg width="205" height="20" viewBox="0 0 205 20" fill="none" xmlns="http://www.w3.org/2000/svg">
<path fill-rule="evenodd" clip-rule="evenodd" d="M29.1446 16.0012C29.1446 16.0012 28.9146 14.6012 28.8376 14.2492H25.5196C25.4276 14.5242 24.9686 16.0012 24.9686 16.0012H22.2616L26.1006 6.84516C26.196 6.57316 26.3813 6.34118 26.626 6.18818C26.8707 6.03618 27.1602 5.97117 27.4466 6.00517H29.4466L31.5466 16.0052H29.1466L29.1446 16.0012ZM27.8136 9.56016L27.6296 8.70615C27.5076 9.08715 27.2776 9.68315 27.2936 9.66715C27.2936 9.66715 26.4676 11.8792 26.2686 12.4592H28.4096C28.3026 11.9562 27.8136 9.56016 27.8136 9.56016ZM22.2456 8.31016C21.6409 8.03716 20.9817 7.90617 20.3186 7.92817C19.2936 7.92817 18.8346 8.35517 18.8186 8.78217C18.8186 9.25617 19.3696 9.56017 20.2866 10.0182C21.7706 10.7182 22.4586 11.5902 22.4436 12.7342C22.4286 14.7932 20.6696 16.1342 17.9436 16.1342C16.9604 16.1372 15.9854 15.9562 15.0686 15.6012L15.4196 13.3582L15.7716 13.5262C16.5227 13.8952 17.3517 14.0792 18.1886 14.0602C18.524 14.1252 18.8718 14.0612 19.1615 13.8802C19.4512 13.6982 19.661 13.4132 19.7486 13.0832C19.7486 12.6412 19.4126 12.3202 18.4026 11.8322C17.4236 11.3602 16.1236 10.5672 16.1386 9.13218C16.1546 7.19518 17.9436 5.83216 20.4986 5.83216C21.2921 5.82716 22.0798 5.96617 22.8236 6.24317L22.4716 8.41016L22.2456 8.31016ZM10.8656 16.0012L12.4876 6.00117H15.0726L13.4516 16.0012H10.8656ZM4.64056 16.0012L2.63356 8.47315L2.47656 7.86216C2.83026 8.03916 3.16526 8.25116 3.47656 8.49516C4.41796 9.26316 5.22286 10.1852 5.85756 11.2212L5.84956 11.1782L5.89956 11.4372L6.17556 12.8102L8.70956 6.00117H11.4476L7.37856 16.0012H4.63656H4.64056Z" fill="white"/>
<path opacity="0.5" fill-rule="evenodd" clip-rule="evenodd" d="M3.47 8.49426C3.1587 8.25026 2.8237 8.03827 2.47 7.86127L2.323 7.30728C1.5929 6.87728 0.8127 6.53828 0 6.29828V5.98828H3.971C4.2091 5.98928 4.4397 6.07128 4.6244 6.22128C4.8092 6.37128 4.9368 6.58026 4.986 6.81326L5.846 11.2203C5.2128 10.1843 4.4096 9.26326 3.47 8.49426Z" fill="white"/>
<path fill-rule="evenodd" clip-rule="evenodd" d="M65.5469 19.002H52.5469C52.2817 19.002 52.0273 18.897 51.8398 18.709C51.6523 18.522 51.5469 18.267 51.5469 18.002V8.97601C51.547 8.66901 51.6652 8.37302 51.8769 8.15002L52.3239 7.75L61.7719 0L62.5469 0.00201416V7.00201L62.5359 12.238L53.0499 18.25L64.5399 14.493L64.5469 8.00201H66.5469V19.002H65.5469ZM58.4739 7.48502C58.5979 7.37702 58.7435 7.297 58.901 7.25C59.0585 7.203 59.2242 7.19001 59.387 7.21301C59.5499 7.23501 59.7059 7.29201 59.8449 7.38C59.9839 7.467 60.1029 7.58401 60.1929 7.72101C60.3119 8.05501 60.3079 8.41901 60.1839 8.75101C60.0589 9.08201 59.8219 9.35901 59.5129 9.53201C59.3888 9.64001 59.2431 9.72003 59.0855 9.76703C58.928 9.81403 58.7622 9.82602 58.5994 9.80402C58.4365 9.78202 58.2803 9.72502 58.1413 9.63702C58.0022 9.55002 57.8834 9.43302 57.7929 9.29602C57.6744 8.96202 57.6777 8.59702 57.8024 8.26602C57.927 7.93502 58.1649 7.65802 58.4739 7.48502Z" fill="white"/>
<path opacity="0.4" fill-rule="evenodd" clip-rule="evenodd" d="M62.5439 8.00195H64.5439L64.5369 14.493L53.0469 18.2499L62.5329 12.2379L62.5439 8.00195Z" fill="white"/>
<path d="M103.541 9.20496C103.545 9.30396 103.547 9.40295 103.547 9.50195C103.547 13.644 100.189 17.002 96.0469 17.002C91.9049 17.002 88.5469 13.644 88.5469 9.50195C88.5469 5.35995 91.9049 2.00195 96.0469 2.00195C97.5709 2.00195 98.9879 2.45594 100.171 3.23694L101.804 1.94394C100.207 0.725939 98.2109 0.00195312 96.0469 0.00195312C90.7999 0.00195312 86.5469 4.25495 86.5469 9.50195C86.5469 14.749 90.7999 19.002 96.0469 19.002C101.294 19.002 105.547 14.749 105.547 9.50195C105.547 8.89695 105.49 8.30496 105.382 7.73096L103.541 9.20496Z" fill="white"/>
<path d="M96.0469 12.001L104.596 5.35199C104.304 4.75299 103.952 4.18897 103.546 3.66797L96.0469 9.50098L92.5469 7.31396V9.80597L96.0469 12.001Z" fill="white"/>
<path opacity="0.5" fill-rule="evenodd" clip-rule="evenodd" d="M141.555 18.0018C140.15 18.0018 138.77 17.6298 137.555 16.9228C138.771 16.2218 139.781 15.2138 140.483 13.9988C141.185 12.7838 141.555 11.4048 141.555 10.0018C141.555 8.59881 141.185 7.21981 140.483 6.00481C139.781 4.7898 138.771 3.78182 137.555 3.08082C138.618 2.46482 139.808 2.10182 141.033 2.01982C142.259 1.93782 143.487 2.1388 144.622 2.6078C145.757 3.0768 146.769 3.8008 147.579 4.7238C148.39 5.6468 148.977 6.7438 149.295 7.9308C149.613 9.1168 149.653 10.3608 149.413 11.5648C149.173 12.7698 148.659 13.9028 147.911 14.8768C147.162 15.8508 146.2 16.6388 145.098 17.1808C143.995 17.7228 142.783 18.0038 141.555 18.0018Z" fill="white"/>
<path fill-rule="evenodd" clip-rule="evenodd" d="M133.559 10.002C133.559 11.405 133.929 12.784 134.631 13.999C135.334 15.214 136.343 16.222 137.559 16.923C136.343 17.628 134.963 18 133.557 18.002C132.152 18.004 130.771 17.635 129.553 16.934C128.335 16.232 127.323 15.222 126.62 14.005C125.917 12.788 125.547 11.408 125.547 10.002C125.547 8.59596 125.917 7.21597 126.62 5.99897C127.323 4.78197 128.335 3.77195 129.553 3.06995C130.771 2.36895 132.152 1.99996 133.557 2.00196C134.963 2.00396 136.343 2.37597 137.559 3.08097C136.343 3.78197 135.334 4.78995 134.631 6.00495C133.929 7.21995 133.559 8.59896 133.559 10.002Z" fill="white"/>
<path opacity="0.75" fill-rule="evenodd" clip-rule="evenodd" d="M137.555 16.924C136.339 16.223 135.329 15.215 134.627 14C133.925 12.785 133.555 11.406 133.555 10.003C133.555 8.60002 133.925 7.22101 134.627 6.00601C135.329 4.79101 136.339 3.78303 137.555 3.08203C138.771 3.78303 139.781 4.79101 140.483 6.00601C141.185 7.22101 141.555 8.60002 141.555 10.003C141.555 11.406 141.185 12.785 140.483 14C139.781 15.215 138.771 16.223 137.555 16.924Z" fill="white"/>
<path fill-rule="evenodd" clip-rule="evenodd" d="M178.58 15.0022V9.65718H178.336L176.596 15.0022H174.53H174.524L172.788 9.65718H172.546V15.0022H169.57V6.00218H172.546C172.913 5.99718 173.272 6.1102 173.57 6.3232C173.869 6.5362 174.092 6.83919 174.206 7.18819L175.429 11.3482H175.686L176.911 7.18819C177.026 6.83819 177.25 6.53418 177.551 6.32118C177.851 6.10718 178.212 5.99618 178.58 6.00218H181.556V15.0022H178.58Z" fill="white"/>
<path fill-rule="evenodd" clip-rule="evenodd" d="M189.551 15.002V9.65695H189.324L187.443 14.142C187.327 14.398 187.14 14.616 186.904 14.769C186.668 14.921 186.392 15.002 186.111 15.002H183.586V6.00195H186.586V11.347H186.824L188.729 6.85696L188.744 6.82297C188.864 6.57797 189.051 6.37096 189.283 6.22696C189.515 6.08196 189.783 6.00595 190.056 6.00595H192.581V15.006H189.553L189.551 15.002Z" fill="white"/>
<path fill-rule="evenodd" clip-rule="evenodd" d="M201.114 12.0171H197.586V15.0031H194.586V9.99609H204.539C204.23 10.6321 203.74 11.1631 203.131 11.5221C202.522 11.8821 201.82 12.0541 201.114 12.0171Z" fill="white"/>
<path opacity="0.7" fill-rule="evenodd" clip-rule="evenodd" d="M204.49 9.00797H199.078C196.606 9.00797 194.55 7.70795 194.117 6.00195H201.14C203.03 6.00195 204.562 7.11894 204.562 8.49594C204.562 8.66894 204.538 8.84097 204.49 9.00797Z" fill="white"/>
</svg>
