<svg width="37" height="36" viewBox="0 0 37 36" fill="none" xmlns="http://www.w3.org/2000/svg">
<path d="M0.5 18C0.5 8.33502 8.33502 0.5 18 0.5H19C28.665 0.5 36.5 8.33502 36.5 18C36.5 27.665 28.665 35.5 19 35.5H18C8.33502 35.5 0.5 27.665 0.5 18Z" stroke="#616161"/>
<path fill-rule="evenodd" clip-rule="evenodd" d="M17.3181 23.9593H18.3344C18.3344 23.9593 18.6413 23.923 18.7972 23.7492C18.9406 23.5884 18.9381 23.2901 18.9381 23.2901C18.9381 23.2901 18.918 21.8843 19.5494 21.6768C20.1732 21.4719 20.9757 23.0359 21.8234 23.6351C22.4649 24.0916 22.9529 23.9905 22.9529 23.9905L25.2244 23.9593C25.2244 23.9593 26.4117 23.8841 25.8483 22.9192C25.803 22.8414 25.5212 22.2085 24.1603 20.9064C22.7366 19.5447 22.9277 19.7651 24.6433 17.4074C25.6873 15.973 26.1049 15.0963 25.974 14.7202C25.8483 14.3648 25.081 14.4582 25.081 14.4582L22.5252 14.4738C22.5252 14.4738 22.3341 14.4478 22.1957 14.5334C22.0574 14.619 21.9693 14.8161 21.9693 14.8161C21.9693 14.8161 21.5643 15.9289 21.026 16.873C19.8865 18.8651 19.4311 18.9714 19.245 18.8469C18.8123 18.559 18.9205 17.6875 18.9205 17.0702C18.9205 15.1378 19.2047 14.3337 18.3671 14.1236C18.0904 14.0562 17.8841 14.0095 17.1747 14.0017C16.2616 13.9939 15.4918 14.0043 15.0541 14.2273C14.7623 14.3726 14.5384 14.6994 14.6743 14.7202C14.8428 14.7409 15.2277 14.8265 15.4289 15.1092C15.6905 15.4776 15.683 16.3024 15.683 16.3024C15.683 16.3024 15.8339 18.5772 15.3308 18.8599C14.9862 19.0518 14.5133 18.6576 13.4995 16.8497C12.9788 15.9237 12.5864 14.8991 12.5864 14.8991C12.5864 14.8991 12.5109 14.7072 12.3751 14.606C12.2116 14.4815 11.9827 14.4426 11.9827 14.4426L9.55265 14.4582C9.55265 14.4582 9.19042 14.4686 9.05458 14.632C8.93635 14.7772 9.04703 15.0781 9.04703 15.0781C9.04703 15.0781 10.9463 19.6666 13.0996 21.9777C15.0768 24.0968 17.3181 23.9593 17.3181 23.9593Z" fill="#E8EAF6"/>
</svg>
