<svg width="36" height="36" viewBox="0 0 36 36" fill="none" xmlns="http://www.w3.org/2000/svg">
<circle cx="18" cy="18" r="18" fill="#37D449"/>
<path d="M13.9904 24.1693L14.6782 24.5711C15.8381 25.2476 17.1573 25.6027 18.5 25.6C20.0031 25.6 21.4725 25.1543 22.7223 24.3192C23.9721 23.4841 24.9463 22.2971 25.5215 20.9084C26.0967 19.5197 26.2472 17.9916 25.954 16.5173C25.6607 15.0431 24.9369 13.6889 23.874 12.626C22.8111 11.5631 21.4569 10.8393 19.9827 10.546C18.5084 10.2528 16.9803 10.4033 15.5916 10.9785C14.2029 11.5537 13.0159 12.5279 12.1808 13.7777C11.3457 15.0275 10.9 16.4969 10.9 18C10.9 19.3642 11.2582 20.6723 11.9298 21.8228L12.3307 22.5106L11.7104 24.7915L13.9904 24.1693ZM9.00381 27.5L10.2882 22.7804C9.44189 21.3296 8.99725 19.6796 9.00001 18C9.00001 12.7531 13.2532 8.5 18.5 8.5C23.7469 8.5 28 12.7531 28 18C28 23.2468 23.7469 27.5 18.5 27.5C16.8211 27.5027 15.1718 27.0584 13.7215 26.2127L9.00381 27.5ZM15.0715 13.5426C15.1988 13.5331 15.327 13.5331 15.4543 13.5388C15.5056 13.5426 15.5569 13.5483 15.6082 13.554C15.7593 13.5711 15.9255 13.6632 15.9816 13.7905C16.2647 14.4327 16.5402 15.0797 16.8062 15.7285C16.8651 15.8729 16.8299 16.0582 16.7178 16.2387C16.6407 16.3607 16.5573 16.4787 16.468 16.5921C16.3606 16.7298 16.1298 16.9825 16.1298 16.9825C16.1298 16.9825 16.0357 17.0946 16.0718 17.2343C16.0851 17.2875 16.1288 17.3644 16.1687 17.429L16.2248 17.5193C16.468 17.9249 16.7948 18.3363 17.1938 18.7239C17.3078 18.8341 17.4189 18.9471 17.5386 19.0526C17.9832 19.4449 18.4867 19.7651 19.0301 20.0026L19.0349 20.0045C19.1156 20.0396 19.1565 20.0586 19.2743 20.109C19.3332 20.1337 19.394 20.1555 19.4557 20.1717C19.5195 20.1879 19.5867 20.1849 19.6488 20.1629C19.7109 20.1409 19.765 20.101 19.8044 20.0482C20.4922 19.215 20.5549 19.1609 20.5606 19.1609V19.1628C20.6083 19.1182 20.6651 19.0844 20.727 19.0636C20.789 19.0428 20.8547 19.0355 20.9197 19.0421C20.9767 19.0459 21.0346 19.0564 21.0878 19.0801C21.5923 19.311 22.4178 19.671 22.4178 19.671L22.9707 19.919C23.0638 19.9636 23.1484 20.0691 23.1512 20.1707C23.155 20.2344 23.1607 20.337 23.1389 20.5251C23.1085 20.7711 23.0344 21.0666 22.9603 21.2214C22.9095 21.3271 22.8422 21.424 22.7608 21.5083C22.6649 21.609 22.5599 21.7006 22.4473 21.7819C22.4083 21.8113 22.3687 21.8398 22.3285 21.8674C22.2103 21.9424 22.0889 22.0121 21.9647 22.0764C21.7201 22.2064 21.4499 22.281 21.1733 22.2949C20.9976 22.3044 20.8218 22.3177 20.6451 22.3082C20.6375 22.3082 20.1055 22.2256 20.1055 22.2256C18.7548 21.8703 17.5057 21.2048 16.4575 20.2819C16.2428 20.0928 16.0443 19.8895 15.841 19.6872C14.9955 18.8464 14.3571 17.9392 13.9695 17.0823C13.7711 16.6617 13.6639 16.2039 13.655 15.739C13.6511 15.1622 13.8396 14.6006 14.1908 14.143C14.2602 14.0537 14.3257 13.9606 14.4388 13.8532C14.5594 13.7392 14.6354 13.6784 14.7181 13.6366C14.8279 13.5816 14.9478 13.5493 15.0705 13.5416L15.0715 13.5426Z" fill="white"/>
</svg>
